<svg xmlns="http://www.w3.org/2000/svg" xmlns:xlink="http://www.w3.org/1999/xlink" width="150" zoomAndPan="magnify" viewBox="0 0 112.5 112.499997" height="150" preserveAspectRatio="xMidYMid meet" version="1.0"><defs><filter x="0%" y="0%" width="100%" height="100%" id="2becdf13fa"><feColorMatrix values="0 0 0 0 1 0 0 0 0 1 0 0 0 0 1 0 0 0 1 0" color-interpolation-filters="sRGB"/></filter><g/><clipPath id="24fdfbee0b"><path d="M 0 21 L 112.003906 21 L 112.003906 101 L 0 101 Z M 0 21 " clip-rule="nonzero"/></clipPath><mask id="4f74159ee4"><g filter="url(#2becdf13fa)"><rect x="-11.25" width="135" fill="#000000" y="-11.25" height="134.999996" fill-opacity="0.62"/></g></mask><clipPath id="abb7a789b8"><path d="M 0 0.28125 L 112 0.28125 L 112 79.429688 L 0 79.429688 Z M 0 0.28125 " clip-rule="nonzero"/></clipPath><clipPath id="d07c89bcda"><rect x="0" width="113" y="0" height="80"/></clipPath></defs><g fill="#000000" fill-opacity="1"><g transform="translate(57.274892, 57.920942)"><g><path d="M 0.09375 0 L 0.09375 -0.8125 L 0.1875 -0.8125 L 0.1875 -0.34375 L 0.203125 -0.34375 L 0.421875 -0.578125 L 0.5 -0.578125 L 0.5 -0.5625 L 0.28125 -0.3125 L 0.53125 -0.015625 L 0.53125 0 L 0.4375 0 L 0.203125 -0.265625 L 0.1875 -0.265625 L 0.1875 0 Z M 0.09375 0 "/></g></g></g><g fill="#000000" fill-opacity="1"><g transform="translate(57.812355, 57.920942)"><g><path d="M 0.140625 -0.6875 C 0.117188 -0.6875 0.101562 -0.691406 0.09375 -0.703125 C 0.0820312 -0.722656 0.078125 -0.738281 0.078125 -0.75 C 0.078125 -0.769531 0.0820312 -0.785156 0.09375 -0.796875 C 0.101562 -0.804688 0.117188 -0.8125 0.140625 -0.8125 C 0.160156 -0.8125 0.175781 -0.804688 0.1875 -0.796875 C 0.195312 -0.785156 0.203125 -0.769531 0.203125 -0.75 C 0.203125 -0.738281 0.195312 -0.722656 0.1875 -0.703125 C 0.175781 -0.691406 0.160156 -0.6875 0.140625 -0.6875 Z M 0.03125 0.25 C 0.0078125 0.25 -0.00390625 0.242188 -0.015625 0.234375 C -0.0351562 0.234375 -0.0507812 0.234375 -0.0625 0.234375 L -0.046875 0.171875 L -0.03125 0.15625 C -0.0195312 0.164062 -0.00390625 0.171875 0.015625 0.171875 C 0.046875 0.171875 0.0664062 0.160156 0.078125 0.140625 C 0.0859375 0.128906 0.09375 0.101562 0.09375 0.0625 L 0.09375 -0.578125 L 0.1875 -0.578125 L 0.1875 0.0625 C 0.1875 0.125 0.171875 0.171875 0.140625 0.203125 C 0.117188 0.234375 0.0820312 0.25 0.03125 0.25 Z M 0.03125 0.25 "/></g></g></g><g fill="#000000" fill-opacity="1"><g transform="translate(58.098898, 57.920942)"><g><path d="M 0.09375 0 L 0.09375 -0.8125 L 0.1875 -0.8125 L 0.1875 -0.5 L 0.203125 -0.5 C 0.242188 -0.5625 0.300781 -0.59375 0.375 -0.59375 C 0.445312 -0.59375 0.5 -0.570312 0.53125 -0.53125 C 0.5625 -0.5 0.578125 -0.445312 0.578125 -0.375 L 0.578125 0 L 0.484375 0 L 0.484375 -0.375 C 0.484375 -0.40625 0.476562 -0.429688 0.46875 -0.453125 C 0.46875 -0.472656 0.457031 -0.488281 0.4375 -0.5 C 0.414062 -0.507812 0.390625 -0.515625 0.359375 -0.515625 C 0.304688 -0.515625 0.265625 -0.5 0.234375 -0.46875 C 0.203125 -0.4375 0.1875 -0.378906 0.1875 -0.296875 L 0.1875 0 Z M 0.09375 0 "/></g></g></g><g clip-path="url(#24fdfbee0b)"><g mask="url(#4f74159ee4)"><g transform="matrix(1, 0, 0, 1, 0, 21)"><g clip-path="url(#d07c89bcda)"><g clip-path="url(#abb7a789b8)"><path fill="#ffffff" d="M 99.960938 32.230469 C 100.140625 30.933594 100.273438 29.613281 100.273438 28.246094 C 100.273438 12.8125 87.746094 0.28125 72.308594 0.28125 C 61.863281 0.28125 52.757812 6.03125 47.96875 14.511719 C 45.195312 12.878906 41.972656 11.917969 38.527344 11.917969 C 28.796875 11.917969 20.808594 19.390625 19.960938 28.898438 C 8.574219 31.535156 0.0703125 41.695312 0.0703125 53.886719 C 0.0703125 68.046875 11.546875 79.523438 25.710938 79.523438 L 86.292969 79.523438 C 100.453125 79.523438 111.929688 68.046875 111.929688 53.886719 C 111.929688 44.757812 107.144531 36.773438 99.960938 32.230469 Z M 40.519531 39.074219 C 40.96875 39.523438 40.96875 40.261719 40.519531 40.730469 C 40.296875 40.957031 40.003906 41.066406 39.691406 41.066406 C 39.402344 41.066406 39.085938 40.957031 38.863281 40.730469 L 37.367188 39.234375 L 35.867188 40.730469 C 35.644531 40.957031 35.351562 41.066406 35.039062 41.066406 C 34.726562 41.066406 34.433594 40.957031 34.210938 40.730469 C 33.761719 40.285156 33.761719 39.546875 34.210938 39.074219 L 35.710938 37.578125 L 34.210938 36.078125 C 33.761719 35.628906 33.761719 34.890625 34.210938 34.421875 C 34.660156 33.976562 35.398438 33.976562 35.867188 34.421875 L 37.367188 35.921875 L 38.863281 34.421875 C 39.3125 33.976562 40.050781 33.976562 40.519531 34.421875 C 40.96875 34.871094 40.96875 35.609375 40.519531 36.078125 L 39.019531 37.578125 Z M 68.574219 62.769531 C 68.171875 63.28125 67.433594 63.351562 66.941406 62.945312 C 60.519531 57.800781 51.527344 57.800781 45.082031 62.945312 C 44.859375 63.125 44.613281 63.191406 44.34375 63.191406 C 44.007812 63.191406 43.675781 63.035156 43.429688 62.746094 C 43.023438 62.253906 43.113281 61.515625 43.605469 61.113281 C 50.898438 55.273438 61.078125 55.273438 68.371094 61.113281 C 68.886719 61.539062 68.953125 62.253906 68.574219 62.769531 Z M 77.792969 39.074219 C 78.238281 39.523438 78.238281 40.261719 77.792969 40.730469 C 77.566406 40.957031 77.277344 41.066406 76.964844 41.066406 C 76.652344 41.066406 76.359375 40.957031 76.136719 40.730469 L 74.636719 39.234375 L 73.136719 40.730469 C 72.914062 40.957031 72.625 41.066406 72.308594 41.066406 C 72.019531 41.066406 71.707031 40.957031 71.484375 40.730469 C 71.035156 40.285156 71.035156 39.546875 71.484375 39.074219 L 72.980469 37.578125 L 71.484375 36.078125 C 71.035156 35.628906 71.035156 34.890625 71.484375 34.421875 C 71.929688 33.976562 72.667969 33.976562 73.136719 34.421875 L 74.636719 35.921875 L 76.136719 34.421875 C 76.582031 33.976562 77.320312 33.976562 77.792969 34.421875 C 78.238281 34.871094 78.238281 35.609375 77.792969 36.078125 L 76.292969 37.578125 Z M 77.792969 39.074219 " fill-opacity="1" fill-rule="nonzero"/></g></g></g></g></g></svg>